STARTFONT 2.1
FONT -Patrick J. Thomas-mono_size_13_09_design_1_pixel-Normal-R-Normal--19-190-72-72-P-0--
SIZE 18 72 72
FONTBOUNDINGBOX 14 17 1 -4
STARTPROPERTIES 24
FAMILY_NAME "mono_size_13_09_design_1_pixel"
DEFAULT_CHAR -1
FOUNDRY "Patrick J. Thomas"
COPYRIGHT "Copyright (c) 2026, Patrick J. Thomas. All rights reserved."
CODEPAGE "MS Windows 1252 Western (ANSI)"
ENC_MODE 2
DESIGNER "Patrick J. Thomas"
CREATION_YEAR 2026
WEIGHT_NAME "Normal"
SLANT "R"
SETWIDTH_NAME "Normal"
SPACING "P"
WEIGHT 400
HI_VERSION 1
FONTNAME_REGISTRY "-"
BREAK_CHAR 32
PIXEL_SIZE 18
POINT_SIZE 180
FONT_ASCENT 14
FONT_DESCENT 4
RESOLUTION_X 72
RESOLUTION_Y 72
X_HEIGHT 9
CAP_HEIGHT 14
ENDPROPERTIES
CHARS 150
STARTCHAR .uni0020
ENCODING 32
SWIDTH 473 0
DWIDTH 9 0
BBX 0 0 0 0
BITMAP
ENDCHAR
STARTCHAR .uni0021
ENCODING 33
SWIDTH 473 0
DWIDTH 9 0
BBX 1 13 4 0
BITMAP
8000
8000
8000
8000
8000
8000
8000
8000
8000
8000
0000
0000
8000
ENDCHAR
STARTCHAR .uni0022
ENCODING 34
SWIDTH 473 0
DWIDTH 9 0
BBX 3 3 3 10
BITMAP
A000
A000
A000
ENDCHAR
STARTCHAR .uni0023
ENCODING 35
SWIDTH 473 0
DWIDTH 9 0
BBX 7 7 1 3
BITMAP
2800
2800
FE00
2800
FE00
2800
2800
ENDCHAR
STARTCHAR .uni0024
ENCODING 36
SWIDTH 473 0
DWIDTH 9 0
BBX 7 13 1 0
BITMAP
1000
1000
3800
5400
9000
5000
3800
1400
1200
5400
3800
1000
1000
ENDCHAR
STARTCHAR .uni0025
ENCODING 37
SWIDTH 473 0
DWIDTH 9 0
BBX 7 7 1 3
BITMAP
8200
0400
0800
1000
2000
4000
8200
ENDCHAR
STARTCHAR .uni0026
ENCODING 38
SWIDTH 473 0
DWIDTH 9 0
BBX 7 13 1 0
BITMAP
2000
5000
8800
8800
5000
2000
5000
8A00
8400
8400
8400
4A00
3000
ENDCHAR
STARTCHAR .uni0027
ENCODING 39
SWIDTH 473 0
DWIDTH 9 0
BBX 1 3 4 10
BITMAP
8000
8000
8000
ENDCHAR
STARTCHAR .uni0028
ENCODING 40
SWIDTH 473 0
DWIDTH 9 0
BBX 5 17 2 -4
BITMAP
0800
1000
2000
4000
8000
8000
8000
8000
8000
8000
8000
8000
8000
4000
2000
1000
0800
ENDCHAR
STARTCHAR .uni0029
ENCODING 41
SWIDTH 473 0
DWIDTH 9 0
BBX 5 17 2 -4
BITMAP
8000
4000
2000
1000
0800
0800
0800
0800
0800
0800
0800
0800
0800
1000
2000
4000
8000
ENDCHAR
STARTCHAR .uni002A
ENCODING 42
SWIDTH 473 0
DWIDTH 9 0
BBX 7 7 1 3
BITMAP
1000
9200
5400
3800
5400
9200
1000
ENDCHAR
STARTCHAR .uni002B
ENCODING 43
SWIDTH 473 0
DWIDTH 9 0
BBX 7 7 1 3
BITMAP
1000
1000
1000
FE00
1000
1000
1000
ENDCHAR
STARTCHAR .uni002C
ENCODING 44
SWIDTH 473 0
DWIDTH 9 0
BBX 3 3 3 -2
BITMAP
2000
4000
8000
ENDCHAR
STARTCHAR .uni002D
ENCODING 45
SWIDTH 473 0
DWIDTH 9 0
BBX 7 1 1 6
BITMAP
FE00
ENDCHAR
STARTCHAR .uni002E
ENCODING 46
SWIDTH 473 0
DWIDTH 9 0
BBX 1 1 4 0
BITMAP
8000
ENDCHAR
STARTCHAR .uni002F
ENCODING 47
SWIDTH 473 0
DWIDTH 9 0
BBX 7 7 1 3
BITMAP
0200
0400
0800
1000
2000
4000
8000
ENDCHAR
STARTCHAR .uni0030
ENCODING 48
SWIDTH 473 0
DWIDTH 9 0
BBX 7 13 1 0
BITMAP
3800
4400
8200
8200
8600
8A00
9200
A200
C200
8200
8200
4400
3800
ENDCHAR
STARTCHAR .uni0031
ENCODING 49
SWIDTH 473 0
DWIDTH 9 0
BBX 4 13 1 0
BITMAP
1000
3000
5000
9000
1000
1000
1000
1000
1000
1000
1000
1000
1000
ENDCHAR
STARTCHAR .uni0032
ENCODING 50
SWIDTH 473 0
DWIDTH 9 0
BBX 7 13 1 0
BITMAP
3800
4400
8200
0200
0200
0400
0800
1000
2000
4000
8000
8000
FE00
ENDCHAR
STARTCHAR .uni0033
ENCODING 51
SWIDTH 473 0
DWIDTH 9 0
BBX 7 13 1 0
BITMAP
3800
4400
8200
0200
0200
0400
1800
0400
0200
0200
8200
4400
3800
ENDCHAR
STARTCHAR .uni0034
ENCODING 52
SWIDTH 473 0
DWIDTH 9 0
BBX 7 13 1 0
BITMAP
0400
0C00
1400
2400
4400
8400
FE00
0400
0400
0400
0400
0400
0400
ENDCHAR
STARTCHAR .uni0035
ENCODING 53
SWIDTH 473 0
DWIDTH 9 0
BBX 7 13 1 0
BITMAP
FE00
8000
8000
8000
8000
8000
F800
0400
0200
0200
8200
4400
3800
ENDCHAR
STARTCHAR .uni0036
ENCODING 54
SWIDTH 473 0
DWIDTH 9 0
BBX 7 13 1 0
BITMAP
3800
4400
8200
8000
8000
8000
B800
C400
8200
8200
8200
4400
3800
ENDCHAR
STARTCHAR .uni0037
ENCODING 55
SWIDTH 473 0
DWIDTH 9 0
BBX 7 13 1 0
BITMAP
FE00
0200
0200
0200
0400
0800
1000
1000
1000
1000
1000
1000
1000
ENDCHAR
STARTCHAR .uni0038
ENCODING 56
SWIDTH 473 0
DWIDTH 9 0
BBX 7 13 1 0
BITMAP
3800
4400
8200
8200
8200
4400
3800
4400
8200
8200
8200
4400
3800
ENDCHAR
STARTCHAR .uni0039
ENCODING 57
SWIDTH 473 0
DWIDTH 9 0
BBX 7 13 1 0
BITMAP
3800
4400
8200
8200
8200
4600
3A00
0200
0200
0200
8200
4400
3800
ENDCHAR
STARTCHAR .uni003A
ENCODING 58
SWIDTH 473 0
DWIDTH 9 0
BBX 1 7 4 3
BITMAP
8000
0000
0000
0000
0000
0000
8000
ENDCHAR
STARTCHAR .uni003B
ENCODING 59
SWIDTH 473 0
DWIDTH 9 0
BBX 3 12 3 -2
BITMAP
2000
0000
0000
0000
0000
0000
0000
0000
0000
2000
4000
8000
ENDCHAR
STARTCHAR .uni003C
ENCODING 60
SWIDTH 473 0
DWIDTH 9 0
BBX 5 9 2 2
BITMAP
0800
1000
2000
4000
8000
4000
2000
1000
0800
ENDCHAR
STARTCHAR .uni003D
ENCODING 61
SWIDTH 473 0
DWIDTH 9 0
BBX 7 5 1 4
BITMAP
FE00
0000
0000
0000
FE00
ENDCHAR
STARTCHAR .uni003E
ENCODING 62
SWIDTH 473 0
DWIDTH 9 0
BBX 5 9 2 2
BITMAP
8000
4000
2000
1000
0800
1000
2000
4000
8000
ENDCHAR
STARTCHAR .uni003F
ENCODING 63
SWIDTH 473 0
DWIDTH 9 0
BBX 7 13 1 0
BITMAP
3800
4400
8200
8200
0200
0400
0800
1000
1000
1000
0000
0000
1000
ENDCHAR
STARTCHAR .uni0040
ENCODING 64
SWIDTH 473 0
DWIDTH 9 0
BBX 7 13 1 0
BITMAP
1800
2400
4200
8E00
9200
A200
A200
A200
9200
8E00
4000
2000
1C00
ENDCHAR
STARTCHAR .uni0041
ENCODING 65
SWIDTH 473 0
DWIDTH 9 0
BBX 7 13 1 0
BITMAP
3800
4400
8200
8200
8200
8200
FE00
8200
8200
8200
8200
8200
8200
ENDCHAR
STARTCHAR .uni0042
ENCODING 66
SWIDTH 473 0
DWIDTH 9 0
BBX 7 13 1 0
BITMAP
F800
8400
8200
8200
8200
8400
F800
8400
8200
8200
8200
8400
F800
ENDCHAR
STARTCHAR .uni0043
ENCODING 67
SWIDTH 473 0
DWIDTH 9 0
BBX 7 13 1 0
BITMAP
3800
4400
8200
8000
8000
8000
8000
8000
8000
8000
8200
4400
3800
ENDCHAR
STARTCHAR .uni0044
ENCODING 68
SWIDTH 473 0
DWIDTH 9 0
BBX 7 13 1 0
BITMAP
F800
8400
8200
8200
8200
8200
8200
8200
8200
8200
8200
8400
F800
ENDCHAR
STARTCHAR .uni0045
ENCODING 69
SWIDTH 473 0
DWIDTH 9 0
BBX 7 13 1 0
BITMAP
FE00
8000
8000
8000
8000
8000
FE00
8000
8000
8000
8000
8000
FE00
ENDCHAR
STARTCHAR .uni0046
ENCODING 70
SWIDTH 473 0
DWIDTH 9 0
BBX 7 13 1 0
BITMAP
FE00
8000
8000
8000
8000
8000
FE00
8000
8000
8000
8000
8000
8000
ENDCHAR
STARTCHAR .uni0047
ENCODING 71
SWIDTH 473 0
DWIDTH 9 0
BBX 7 13 1 0
BITMAP
3800
4400
8200
8000
8000
8000
8E00
8200
8200
8200
8200
4400
3800
ENDCHAR
STARTCHAR .uni0048
ENCODING 72
SWIDTH 473 0
DWIDTH 9 0
BBX 7 13 1 0
BITMAP
8200
8200
8200
8200
8200
8200
FE00
8200
8200
8200
8200
8200
8200
ENDCHAR
STARTCHAR .uni0049
ENCODING 73
SWIDTH 473 0
DWIDTH 9 0
BBX 7 13 1 0
BITMAP
FE00
1000
1000
1000
1000
1000
1000
1000
1000
1000
1000
1000
FE00
ENDCHAR
STARTCHAR .uni004A
ENCODING 74
SWIDTH 473 0
DWIDTH 9 0
BBX 7 13 1 0
BITMAP
0200
0200
0200
0200
0200
0200
0200
0200
0200
8200
8200
4400
3800
ENDCHAR
STARTCHAR .uni004B
ENCODING 75
SWIDTH 473 0
DWIDTH 9 0
BBX 7 13 1 0
BITMAP
8200
8400
8800
9000
A000
C000
8000
C000
A000
9000
8800
8400
8200
ENDCHAR
STARTCHAR .uni004C
ENCODING 76
SWIDTH 473 0
DWIDTH 9 0
BBX 7 13 1 0
BITMAP
8000
8000
8000
8000
8000
8000
8000
8000
8000
8000
8000
8000
FE00
ENDCHAR
STARTCHAR .uni004D
ENCODING 77
SWIDTH 473 0
DWIDTH 9 0
BBX 7 13 1 0
BITMAP
8200
C600
AA00
9200
8200
8200
8200
8200
8200
8200
8200
8200
8200
ENDCHAR
STARTCHAR .uni004E
ENCODING 78
SWIDTH 473 0
DWIDTH 9 0
BBX 7 13 1 0
BITMAP
8200
C200
A200
9200
8A00
8600
8200
8200
8200
8200
8200
8200
8200
ENDCHAR
STARTCHAR .uni004F
ENCODING 79
SWIDTH 473 0
DWIDTH 9 0
BBX 7 13 1 0
BITMAP
3800
4400
8200
8200
8200
8200
8200
8200
8200
8200
8200
4400
3800
ENDCHAR
STARTCHAR .uni0050
ENCODING 80
SWIDTH 473 0
DWIDTH 9 0
BBX 7 13 1 0
BITMAP
F800
8400
8200
8200
8200
8400
F800
8000
8000
8000
8000
8000
8000
ENDCHAR
STARTCHAR .uni0051
ENCODING 81
SWIDTH 473 0
DWIDTH 9 0
BBX 7 13 1 0
BITMAP
3800
4400
8200
8200
8200
8200
8200
8200
8200
8200
8A00
4400
3A00
ENDCHAR
STARTCHAR .uni0052
ENCODING 82
SWIDTH 473 0
DWIDTH 9 0
BBX 7 13 1 0
BITMAP
F800
8400
8200
8200
8200
8400
F800
8400
8200
8200
8200
8200
8200
ENDCHAR
STARTCHAR .uni0053
ENCODING 83
SWIDTH 473 0
DWIDTH 9 0
BBX 7 13 1 0
BITMAP
3800
4400
8200
8000
8000
4000
3800
0400
0200
0200
8200
4400
3800
ENDCHAR
STARTCHAR .uni0054
ENCODING 84
SWIDTH 473 0
DWIDTH 9 0
BBX 7 13 1 0
BITMAP
FE00
1000
1000
1000
1000
1000
1000
1000
1000
1000
1000
1000
1000
ENDCHAR
STARTCHAR .uni0055
ENCODING 85
SWIDTH 473 0
DWIDTH 9 0
BBX 7 13 1 0
BITMAP
8200
8200
8200
8200
8200
8200
8200
8200
8200
8200
8200
4400
3800
ENDCHAR
STARTCHAR .uni0056
ENCODING 86
SWIDTH 473 0
DWIDTH 9 0
BBX 7 13 1 0
BITMAP
8200
8200
8200
8200
8200
8200
8200
8200
8200
8200
4400
2800
1000
ENDCHAR
STARTCHAR .uni0057
ENCODING 87
SWIDTH 473 0
DWIDTH 9 0
BBX 7 13 1 0
BITMAP
8200
8200
8200
8200
8200
8200
8200
8200
8200
9200
AA00
C600
8200
ENDCHAR
STARTCHAR .uni0058
ENCODING 88
SWIDTH 473 0
DWIDTH 9 0
BBX 7 13 1 0
BITMAP
8200
8200
8200
8200
4400
2800
1000
2800
4400
8200
8200
8200
8200
ENDCHAR
STARTCHAR .uni0059
ENCODING 89
SWIDTH 473 0
DWIDTH 9 0
BBX 7 13 1 0
BITMAP
8200
8200
8200
8200
4400
2800
1000
1000
1000
1000
1000
1000
1000
ENDCHAR
STARTCHAR .uni005A
ENCODING 90
SWIDTH 473 0
DWIDTH 9 0
BBX 7 13 1 0
BITMAP
FE00
0200
0200
0200
0400
0800
1000
2000
4000
8000
8000
8000
FE00
ENDCHAR
STARTCHAR .uni005B
ENCODING 91
SWIDTH 473 0
DWIDTH 9 0
BBX 3 17 3 -4
BITMAP
E000
8000
8000
8000
8000
8000
8000
8000
8000
8000
8000
8000
8000
8000
8000
8000
E000
ENDCHAR
STARTCHAR .uni005C
ENCODING 92
SWIDTH 473 0
DWIDTH 9 0
BBX 7 7 1 3
BITMAP
8000
4000
2000
1000
0800
0400
0200
ENDCHAR
STARTCHAR .uni005D
ENCODING 93
SWIDTH 473 0
DWIDTH 9 0
BBX 3 17 3 -4
BITMAP
E000
2000
2000
2000
2000
2000
2000
2000
2000
2000
2000
2000
2000
2000
2000
2000
E000
ENDCHAR
STARTCHAR .uni005E
ENCODING 94
SWIDTH 473 0
DWIDTH 9 0
BBX 7 4 1 9
BITMAP
1000
2800
4400
8200
ENDCHAR
STARTCHAR .uni005F
ENCODING 95
SWIDTH 473 0
DWIDTH 9 0
BBX 7 1 1 0
BITMAP
FE00
ENDCHAR
STARTCHAR .uni0060
ENCODING 96
SWIDTH 473 0
DWIDTH 9 0
BBX 3 3 3 10
BITMAP
8000
4000
2000
ENDCHAR
STARTCHAR .uni0061
ENCODING 97
SWIDTH 473 0
DWIDTH 9 0
BBX 7 9 1 0
BITMAP
3800
0400
0200
0200
3E00
4200
8200
4200
3E00
ENDCHAR
STARTCHAR .uni0062
ENCODING 98
SWIDTH 473 0
DWIDTH 9 0
BBX 7 13 1 0
BITMAP
8000
8000
8000
8000
F800
8400
8200
8200
8200
8200
8200
8400
F800
ENDCHAR
STARTCHAR .uni0063
ENCODING 99
SWIDTH 473 0
DWIDTH 9 0
BBX 7 9 1 0
BITMAP
3800
4400
8200
8000
8000
8000
8200
4400
3800
ENDCHAR
STARTCHAR .uni0064
ENCODING 100
SWIDTH 473 0
DWIDTH 9 0
BBX 7 13 1 0
BITMAP
0200
0200
0200
0200
3E00
4200
8200
8200
8200
8200
8200
4200
3E00
ENDCHAR
STARTCHAR .uni0065
ENCODING 101
SWIDTH 473 0
DWIDTH 9 0
BBX 7 9 1 0
BITMAP
3800
4400
8200
8200
FE00
8000
8000
4000
3C00
ENDCHAR
STARTCHAR .uni0066
ENCODING 102
SWIDTH 473 0
DWIDTH 9 0
BBX 7 13 1 0
BITMAP
0E00
1000
2000
2000
F800
2000
2000
2000
2000
2000
2000
2000
2000
ENDCHAR
STARTCHAR .uni0067
ENCODING 103
SWIDTH 473 0
DWIDTH 9 0
BBX 7 13 1 -4
BITMAP
3E00
4200
8200
8200
8200
8200
8200
4200
3E00
0200
0200
0400
7800
ENDCHAR
STARTCHAR .uni0068
ENCODING 104
SWIDTH 473 0
DWIDTH 9 0
BBX 7 13 1 0
BITMAP
8000
8000
8000
8000
F800
8400
8200
8200
8200
8200
8200
8200
8200
ENDCHAR
STARTCHAR .uni0069
ENCODING 105
SWIDTH 473 0
DWIDTH 9 0
BBX 7 12 1 0
BITMAP
1000
0000
0000
7000
1000
1000
1000
1000
1000
1000
1000
FE00
ENDCHAR
STARTCHAR .uni006A
ENCODING 106
SWIDTH 473 0
DWIDTH 9 0
BBX 5 16 2 -4
BITMAP
0800
0000
0000
3800
0800
0800
0800
0800
0800
0800
0800
0800
0800
0800
1000
E000
ENDCHAR
STARTCHAR .uni006B
ENCODING 107
SWIDTH 473 0
DWIDTH 9 0
BBX 6 13 2 0
BITMAP
8000
8000
8000
8000
8400
8800
9000
A000
C000
A000
9000
8800
8400
ENDCHAR
STARTCHAR .uni006C
ENCODING 108
SWIDTH 473 0
DWIDTH 9 0
BBX 7 13 1 0
BITMAP
7000
1000
1000
1000
1000
1000
1000
1000
1000
1000
1000
1000
FE00
ENDCHAR
STARTCHAR .uni006D
ENCODING 109
SWIDTH 473 0
DWIDTH 9 0
BBX 7 9 1 0
BITMAP
3800
5400
9200
9200
9200
9200
9200
9200
9200
ENDCHAR
STARTCHAR .uni006E
ENCODING 110
SWIDTH 473 0
DWIDTH 9 0
BBX 7 9 1 0
BITMAP
F800
8400
8200
8200
8200
8200
8200
8200
8200
ENDCHAR
STARTCHAR .uni006F
ENCODING 111
SWIDTH 473 0
DWIDTH 9 0
BBX 7 9 1 0
BITMAP
3800
4400
8200
8200
8200
8200
8200
4400
3800
ENDCHAR
STARTCHAR .uni0070
ENCODING 112
SWIDTH 473 0
DWIDTH 9 0
BBX 7 13 1 -4
BITMAP
F800
8400
8200
8200
8200
8200
8200
8400
F800
8000
8000
8000
8000
ENDCHAR
STARTCHAR .uni0071
ENCODING 113
SWIDTH 473 0
DWIDTH 9 0
BBX 7 13 1 -4
BITMAP
3E00
4200
8200
8200
8200
8200
8200
4200
3E00
0200
0200
0200
0200
ENDCHAR
STARTCHAR .uni0072
ENCODING 114
SWIDTH 473 0
DWIDTH 9 0
BBX 7 9 1 0
BITMAP
F800
8400
8200
8000
8000
8000
8000
8000
8000
ENDCHAR
STARTCHAR .uni0073
ENCODING 115
SWIDTH 473 0
DWIDTH 9 0
BBX 7 9 1 0
BITMAP
3C00
4000
8000
8000
FE00
0200
0200
0400
7800
ENDCHAR
STARTCHAR .uni0074
ENCODING 116
SWIDTH 473 0
DWIDTH 9 0
BBX 7 13 1 0
BITMAP
1000
1000
1000
1000
FE00
1000
1000
1000
1000
1000
1000
1000
1000
ENDCHAR
STARTCHAR .uni0075
ENCODING 117
SWIDTH 473 0
DWIDTH 9 0
BBX 7 9 1 0
BITMAP
8200
8200
8200
8200
8200
8200
8200
4400
3800
ENDCHAR
STARTCHAR .uni0076
ENCODING 118
SWIDTH 473 0
DWIDTH 9 0
BBX 7 9 1 0
BITMAP
8200
8200
8200
8200
8200
8200
4400
2800
1000
ENDCHAR
STARTCHAR .uni0077
ENCODING 119
SWIDTH 473 0
DWIDTH 9 0
BBX 7 9 1 0
BITMAP
9200
9200
9200
9200
9200
9200
9200
5400
3800
ENDCHAR
STARTCHAR .uni0078
ENCODING 120
SWIDTH 473 0
DWIDTH 9 0
BBX 7 9 1 0
BITMAP
8200
8200
4400
2800
1000
2800
4400
8200
8200
ENDCHAR
STARTCHAR .uni0079
ENCODING 121
SWIDTH 473 0
DWIDTH 9 0
BBX 7 13 1 -4
BITMAP
8200
8200
8200
8200
8200
8200
8200
4200
3E00
0200
0200
0400
7800
ENDCHAR
STARTCHAR .uni007A
ENCODING 122
SWIDTH 473 0
DWIDTH 9 0
BBX 7 9 1 0
BITMAP
FE00
0200
0400
0800
1000
2000
4000
8000
FE00
ENDCHAR
STARTCHAR .uni007B
ENCODING 123
SWIDTH 473 0
DWIDTH 9 0
BBX 5 17 2 -4
BITMAP
0800
1000
2000
2000
2000
2000
2000
4000
8000
4000
2000
2000
2000
2000
2000
1000
0800
ENDCHAR
STARTCHAR .uni007C
ENCODING 124
SWIDTH 473 0
DWIDTH 9 0
BBX 1 17 4 -4
BITMAP
8000
8000
8000
8000
8000
8000
8000
8000
8000
8000
8000
8000
8000
8000
8000
8000
8000
ENDCHAR
STARTCHAR .uni007D
ENCODING 125
SWIDTH 473 0
DWIDTH 9 0
BBX 5 17 2 -4
BITMAP
8000
4000
2000
2000
2000
2000
2000
1000
0800
1000
2000
2000
2000
2000
2000
4000
8000
ENDCHAR
STARTCHAR .uni007E
ENCODING 126
SWIDTH 473 0
DWIDTH 9 0
BBX 7 3 1 5
BITMAP
6000
9200
0C00
ENDCHAR
STARTCHAR .uni00AC
ENCODING 172
SWIDTH 473 0
DWIDTH 9 0
BBX 7 3 1 5
BITMAP
FE00
0200
0200
ENDCHAR
STARTCHAR .uni00B7
ENCODING 183
SWIDTH 473 0
DWIDTH 9 0
BBX 1 1 4 6
BITMAP
8000
ENDCHAR
STARTCHAR .uni00D7
ENCODING 215
SWIDTH 473 0
DWIDTH 9 0
BBX 5 5 2 4
BITMAP
8800
5000
2000
5000
8800
ENDCHAR
STARTCHAR .uni0393
ENCODING 915
SWIDTH 473 0
DWIDTH 9 0
BBX 7 13 1 0
BITMAP
FE00
8000
8000
8000
8000
8000
8000
8000
8000
8000
8000
8000
8000
ENDCHAR
STARTCHAR .uni0394
ENCODING 916
SWIDTH 947 0
DWIDTH 18 0
BBX 13 13 2 0
BITMAP
0200
0200
0500
0500
0880
0880
1040
1040
2020
2020
4010
4010
FFF8
ENDCHAR
STARTCHAR .uni039B
ENCODING 923
SWIDTH 947 0
DWIDTH 18 0
BBX 13 13 2 0
BITMAP
0200
0200
0500
0500
0880
0880
1040
1040
2020
2020
4010
4010
C018
ENDCHAR
STARTCHAR .uni03A0
ENCODING 928
SWIDTH 473 0
DWIDTH 9 0
BBX 7 13 1 0
BITMAP
FE00
8200
8200
8200
8200
8200
8200
8200
8200
8200
8200
8200
8200
ENDCHAR
STARTCHAR .uni03A3
ENCODING 931
SWIDTH 473 0
DWIDTH 9 0
BBX 7 13 1 0
BITMAP
FE00
8000
4000
2000
1000
0800
0400
0800
1000
2000
4000
8000
FE00
ENDCHAR
STARTCHAR .uni03B1
ENCODING 945
SWIDTH 473 0
DWIDTH 9 0
BBX 7 9 1 0
BITMAP
3200
4A00
8400
8400
8400
8400
8400
4A00
3200
ENDCHAR
STARTCHAR .uni03B2
ENCODING 946
SWIDTH 473 0
DWIDTH 9 0
BBX 7 15 1 -2
BITMAP
7000
8800
8400
8800
9000
A000
9000
8800
8400
8200
8400
8800
F000
8000
8000
ENDCHAR
STARTCHAR .uni03B3
ENCODING 947
SWIDTH 473 0
DWIDTH 9 0
BBX 7 11 1 -2
BITMAP
8200
8200
8200
8200
8200
8200
4400
2800
1000
2000
C000
ENDCHAR
STARTCHAR .uni03B4
ENCODING 948
SWIDTH 473 0
DWIDTH 9 0
BBX 7 13 1 0
BITMAP
3C00
4000
8000
8000
4000
3800
4400
8200
8200
8200
8200
4400
3800
ENDCHAR
STARTCHAR .uni03B5
ENCODING 949
SWIDTH 473 0
DWIDTH 9 0
BBX 7 9 1 0
BITMAP
3E00
4000
8000
8000
FE00
8000
8000
4000
3E00
ENDCHAR
STARTCHAR .uni03B8
ENCODING 952
SWIDTH 473 0
DWIDTH 9 0
BBX 7 13 1 0
BITMAP
3800
4400
8200
8200
8200
8200
FE00
8200
8200
8200
8200
4400
3800
ENDCHAR
STARTCHAR .uni03BB
ENCODING 955
SWIDTH 473 0
DWIDTH 9 0
BBX 7 11 1 0
BITMAP
8000
8000
8000
4000
2000
1000
2800
4400
8200
8200
8200
ENDCHAR
STARTCHAR .uni03BC
ENCODING 956
SWIDTH 473 0
DWIDTH 9 0
BBX 7 11 1 -2
BITMAP
8200
8200
8200
8200
8200
8200
8200
8400
F800
8000
8000
ENDCHAR
STARTCHAR .uni03BD
ENCODING 957
SWIDTH 473 0
DWIDTH 9 0
BBX 7 9 1 0
BITMAP
8200
8200
8200
8200
8200
8400
8800
9000
E000
ENDCHAR
STARTCHAR .uni03C0
ENCODING 960
SWIDTH 473 0
DWIDTH 9 0
BBX 7 9 1 0
BITMAP
FE00
4400
4400
4400
4400
4400
4400
4400
4400
ENDCHAR
STARTCHAR .uni03C3
ENCODING 963
SWIDTH 473 0
DWIDTH 9 0
BBX 7 9 1 0
BITMAP
3E00
4400
8400
8400
8400
8400
8400
4800
3000
ENDCHAR
STARTCHAR .uni03C4
ENCODING 964
SWIDTH 473 0
DWIDTH 9 0
BBX 7 9 1 0
BITMAP
FE00
1000
1000
1000
1000
1000
1000
1000
1000
ENDCHAR
STARTCHAR .uni03C6
ENCODING 966
SWIDTH 473 0
DWIDTH 9 0
BBX 7 13 1 0
BITMAP
0400
8A00
9200
9200
9200
9200
5400
3800
1000
1000
1000
1000
1000
ENDCHAR
STARTCHAR .uni03C7
ENCODING 967
SWIDTH 473 0
DWIDTH 9 0
BBX 7 13 1 0
BITMAP
0200
0200
0200
8200
4400
2800
1000
2800
4400
8200
8000
8000
8000
ENDCHAR
STARTCHAR .uni03C8
ENCODING 968
SWIDTH 473 0
DWIDTH 9 0
BBX 7 13 1 0
BITMAP
9200
9200
9200
9200
9200
9200
5400
3800
1000
1000
1000
1000
1000
ENDCHAR
STARTCHAR .uni201C
ENCODING 8220
SWIDTH 473 0
DWIDTH 9 0
BBX 5 3 2 10
BITMAP
A000
5000
2800
ENDCHAR
STARTCHAR .uni201D
ENCODING 8221
SWIDTH 473 0
DWIDTH 9 0
BBX 5 3 2 10
BITMAP
2800
5000
A000
ENDCHAR
STARTCHAR .uni2102
ENCODING 8450
SWIDTH 473 0
DWIDTH 9 0
BBX 7 13 1 0
BITMAP
3800
6400
A200
A000
A000
A000
A000
A000
A000
A000
A200
6400
3800
ENDCHAR
STARTCHAR .uni2115
ENCODING 8469
SWIDTH 473 0
DWIDTH 9 0
BBX 7 13 1 0
BITMAP
8200
C200
A200
D200
AA00
9600
8A00
8600
8200
8200
8200
8200
8200
ENDCHAR
STARTCHAR .uni211A
ENCODING 8474
SWIDTH 473 0
DWIDTH 9 0
BBX 7 13 1 0
BITMAP
3800
6400
A200
A200
A200
A200
A200
A200
A200
A200
AA00
6400
3A00
ENDCHAR
STARTCHAR .uni211D
ENCODING 8477
SWIDTH 473 0
DWIDTH 9 0
BBX 7 13 1 0
BITMAP
F800
A400
A200
A200
A200
A400
B800
A400
A200
A200
A200
A200
A200
ENDCHAR
STARTCHAR .uni2124
ENCODING 8484
SWIDTH 473 0
DWIDTH 9 0
BBX 7 13 1 0
BITMAP
FE00
0200
0200
0600
0A00
1400
2800
5000
A000
C000
8000
8000
FE00
ENDCHAR
STARTCHAR .uni2190
ENCODING 8592
SWIDTH 473 0
DWIDTH 9 0
BBX 7 5 1 4
BITMAP
2000
4000
BE00
4000
2000
ENDCHAR
STARTCHAR .uni2192
ENCODING 8594
SWIDTH 473 0
DWIDTH 9 0
BBX 7 5 1 4
BITMAP
0800
0400
FA00
0400
0800
ENDCHAR
STARTCHAR .uni2194
ENCODING 8596
SWIDTH 473 0
DWIDTH 9 0
BBX 7 5 1 4
BITMAP
2800
4400
BA00
4400
2800
ENDCHAR
STARTCHAR .uni2200
ENCODING 8704
SWIDTH 947 0
DWIDTH 18 0
BBX 13 13 2 0
BITMAP
C018
4010
4010
2020
2020
1040
1FC0
0880
0880
0500
0500
0200
0200
ENDCHAR
STARTCHAR .uni2202
ENCODING 8706
SWIDTH 473 0
DWIDTH 9 0
BBX 7 13 1 0
BITMAP
3000
0800
0400
0200
0200
0200
3E00
4200
8200
8200
8200
4200
3C00
ENDCHAR
STARTCHAR .uni2203
ENCODING 8707
SWIDTH 947 0
DWIDTH 18 0
BBX 9 13 4 0
BITMAP
FF80
0080
0080
0080
0080
0080
FF80
0080
0080
0080
0080
0080
FF80
ENDCHAR
STARTCHAR .uni2205
ENCODING 8709
SWIDTH 947 0
DWIDTH 18 0
BBX 13 13 2 0
BITMAP
0F88
1050
2020
4050
8088
8108
8208
8408
8808
5010
2020
5040
8F80
ENDCHAR
STARTCHAR .uni2208
ENCODING 8712
SWIDTH 473 0
DWIDTH 9 0
BBX 7 9 1 2
BITMAP
1E00
2000
4000
8000
FE00
8000
4000
2000
1E00
ENDCHAR
STARTCHAR .uni2209
ENCODING 8713
SWIDTH 473 0
DWIDTH 9 0
BBX 7 9 1 2
BITMAP
1E00
2200
4400
8800
FE00
A000
4000
A000
1E00
ENDCHAR
STARTCHAR .uni2218
ENCODING 8728
SWIDTH 473 0
DWIDTH 9 0
BBX 3 3 3 5
BITMAP
4000
A000
4000
ENDCHAR
STARTCHAR .uni221E
ENCODING 8734
SWIDTH 947 0
DWIDTH 18 0
BBX 13 7 2 3
BITMAP
3060
4890
8508
8208
8508
4890
3060
ENDCHAR
STARTCHAR .uni2227
ENCODING 8743
SWIDTH 473 0
DWIDTH 9 0
BBX 7 4 1 4
BITMAP
1000
2800
4400
8200
ENDCHAR
STARTCHAR .uni2228
ENCODING 8744
SWIDTH 473 0
DWIDTH 9 0
BBX 7 4 1 4
BITMAP
8200
4400
2800
1000
ENDCHAR
STARTCHAR .uni2229
ENCODING 8745
SWIDTH 473 0
DWIDTH 9 0
BBX 7 11 1 0
BITMAP
3800
4400
8200
8200
8200
8200
8200
8200
8200
8200
8200
ENDCHAR
STARTCHAR .uni222A
ENCODING 8746
SWIDTH 473 0
DWIDTH 9 0
BBX 7 11 1 0
BITMAP
8200
8200
8200
8200
8200
8200
8200
8200
8200
4400
3800
ENDCHAR
STARTCHAR .uni2260
ENCODING 8800
SWIDTH 473 0
DWIDTH 9 0
BBX 7 9 1 2
BITMAP
1000
1000
FE00
1000
1000
1000
FE00
1000
1000
ENDCHAR
STARTCHAR .uni2261
ENCODING 8801
SWIDTH 473 0
DWIDTH 9 0
BBX 7 5 1 4
BITMAP
FE00
0000
FE00
0000
FE00
ENDCHAR
STARTCHAR .uni2264
ENCODING 8804
SWIDTH 473 0
DWIDTH 9 0
BBX 5 11 2 0
BITMAP
0800
1000
2000
4000
8000
4000
2000
1000
0800
0000
F800
ENDCHAR
STARTCHAR .uni2265
ENCODING 8805
SWIDTH 473 0
DWIDTH 9 0
BBX 5 11 2 0
BITMAP
8000
4000
2000
1000
0800
1000
2000
4000
8000
0000
F800
ENDCHAR
STARTCHAR .uni2282
ENCODING 8834
SWIDTH 473 0
DWIDTH 9 0
BBX 7 11 1 0
BITMAP
1E00
2000
4000
8000
8000
8000
8000
8000
4000
2000
1E00
ENDCHAR
STARTCHAR .uni2286
ENCODING 8838
SWIDTH 473 0
DWIDTH 9 0
BBX 7 13 1 -2
BITMAP
1E00
2000
4000
8000
8000
8000
8000
8000
4000
2000
1E00
0000
1E00
ENDCHAR
STARTCHAR .uni22C2
ENCODING 8898
SWIDTH 473 0
DWIDTH 9 0
BBX 7 15 1 -4
BITMAP
3800
4400
8200
8200
8200
8200
8200
8200
8200
8200
8200
8200
8200
8200
8200
ENDCHAR
STARTCHAR .uni22C3
ENCODING 8899
SWIDTH 473 0
DWIDTH 9 0
BBX 7 15 1 -4
BITMAP
8200
8200
8200
8200
8200
8200
8200
8200
8200
8200
8200
8200
8200
4400
3800
ENDCHAR
STARTCHAR .uni27E8
ENCODING 10216
SWIDTH 473 0
DWIDTH 9 0
BBX 7 17 1 -4
BITMAP
0200
0400
0800
1000
2000
4000
8000
8000
8000
8000
8000
4000
2000
1000
0800
0400
0200
ENDCHAR
STARTCHAR .uni27E9
ENCODING 10217
SWIDTH 473 0
DWIDTH 9 0
BBX 7 17 1 -4
BITMAP
8000
4000
2000
1000
0800
0400
0200
0200
0200
0200
0200
0400
0800
1000
2000
4000
8000
ENDCHAR
ENDFONT
